<svg width="12" height="11" viewBox="0 0 12 11" fill="none" xmlns="http://www.w3.org/2000/svg">
<path d="M0 1.16129C0 0.519919 0.519919 0 1.16129 0C1.80266 0 2.32258 0.519919 2.32258 1.16129C2.32258 1.80242 1.80266 2.32258 1.16129 2.32258C0.519919 2.32258 0 1.80242 0 1.16129ZM11.2258 0.387097C11.654 0.387097 12 0.73379 12 1.16129C12 1.58952 11.654 1.93548 11.2258 1.93548H4.25806C3.82984 1.93548 3.48387 1.58952 3.48387 1.16129C3.48387 0.73379 3.82984 0.387097 4.25806 0.387097H11.2258ZM11.2258 4.25806C11.654 4.25806 12 4.60403 12 5.03226C12 5.46048 11.654 5.80645 11.2258 5.80645H4.25806C3.82984 5.80645 3.48387 5.46048 3.48387 5.03226C3.48387 4.60403 3.82984 4.25806 4.25806 4.25806H11.2258ZM11.2258 8.12903C11.654 8.12903 12 8.475 12 8.90323C12 9.33145 11.654 9.67742 11.2258 9.67742H4.25806C3.82984 9.67742 3.48387 9.33145 3.48387 8.90323C3.48387 8.475 3.82984 8.12903 4.25806 8.12903H11.2258ZM0 8.90323C0 8.2621 0.519919 7.74194 1.16129 7.74194C1.80266 7.74194 2.32258 8.2621 2.32258 8.90323C2.32258 9.54435 1.80266 10.0645 1.16129 10.0645C0.519919 10.0645 0 9.54435 0 8.90323ZM2.32258 5.03226C2.32258 5.67339 1.80266 6.19355 1.16129 6.19355C0.519919 6.19355 0 5.67339 0 5.03226C0 4.39113 0.519919 3.87097 1.16129 3.87097C1.80266 3.87097 2.32258 4.39113 2.32258 5.03226Z" fill="#595F60"/>
</svg>
